<svg width="170" height="30" viewBox="0 0 170 30" fill="none" xmlns="http://www.w3.org/2000/svg">
<path d="M3.34125 3.61018C2.51983 3.74834 1.77687 4.13518 1.17695 4.73387C0.733939 5.18058 0.544736 5.45689 0.300156 6.03255C-0.0182596 6.76478 0.000199252 6.29505 0.000199252 14.6306C0.000199252 22.7865 -0.00903018 22.4641 0.254009 23.1549C0.433983 23.6384 0.710866 24.0713 1.10312 24.4812C1.6615 25.0661 2.26141 25.4161 3.05514 25.6279L3.43816 25.7292L10.7986 25.7477C16.0363 25.7569 18.2929 25.7477 18.616 25.7108C19.5758 25.6003 20.3511 25.2365 21.0156 24.5779C21.5094 24.0898 21.8001 23.6154 22.0401 22.9016L22.1739 22.5102V14.6812V6.85228L22.0678 6.48847C21.6801 5.14834 20.6741 4.13979 19.3128 3.7115L18.8975 3.58255L11.237 3.57795C7.0238 3.57334 3.47047 3.58716 3.34125 3.61018ZM8.25593 11.9135C9.81109 13.4056 11.0709 14.6444 11.0663 14.6628C11.0571 14.6812 9.77879 15.92 8.22363 17.4167L5.39019 20.1385L4.65645 19.4338C4.25497 19.0516 3.92271 18.7108 3.92732 18.6878C3.92732 18.6602 4.86411 17.7483 6.00395 16.6615C7.13917 15.57 8.07134 14.6674 8.07595 14.6536C8.07595 14.6352 7.14378 13.7233 5.99933 12.6273C4.8595 11.5312 3.92271 10.624 3.92271 10.6102C3.92271 10.5503 5.33481 9.17794 5.38096 9.18715C5.41326 9.19636 6.70538 10.4214 8.25593 11.9135ZM18.3206 19.2865V20.1385H15.6441H12.9676V19.2865V18.4345H15.6441H18.3206V19.2865Z" fill="white"/>
<path d="M35.3306 24.2174H29.3036V6.43182H35.4522C37.218 6.43182 38.7348 6.78788 40.0028 7.5C41.2765 8.20633 42.2549 9.2224 42.9381 10.5482C43.6212 11.874 43.9628 13.4604 43.9628 15.3072C43.9628 17.1599 43.6184 18.752 42.9294 20.0836C42.2462 21.4153 41.2591 22.4371 39.968 23.1492C38.6827 23.8613 37.1369 24.2174 35.3306 24.2174ZM32.5255 21.4297H35.1743C36.4132 21.4297 37.4467 21.2039 38.2746 20.7523C39.1025 20.295 39.7249 19.6147 40.1417 18.7115C40.5586 17.8026 40.767 16.6678 40.767 15.3072C40.767 13.9467 40.5586 12.8177 40.1417 11.9203C39.7249 11.0172 39.1083 10.3427 38.2919 9.89689C37.4814 9.4453 36.474 9.2195 35.2698 9.2195H32.5255V21.4297ZM46.6406 24.2174V10.8782H49.7843V24.2174H46.6406ZM48.2211 8.98503C47.7232 8.98503 47.2948 8.82002 46.9358 8.49002C46.5769 8.15422 46.3974 7.75185 46.3974 7.28289C46.3974 6.80814 46.5769 6.40577 46.9358 6.07576C47.2948 5.73997 47.7232 5.57207 48.2211 5.57207C48.7248 5.57207 49.1532 5.73997 49.5064 6.07576C49.8654 6.40577 50.0448 6.80814 50.0448 7.28289C50.0448 7.75185 49.8654 8.15422 49.5064 8.49002C49.1532 8.82002 48.7248 8.98503 48.2211 8.98503ZM58.5737 29.4975C57.4447 29.4975 56.475 29.3441 55.6644 29.0372C54.8539 28.7362 54.2025 28.3309 53.7104 27.8214C53.2183 27.3119 52.8767 26.7475 52.6857 26.128L55.5168 25.4419C55.6441 25.7024 55.8294 25.9601 56.0726 26.2148C56.3157 26.4753 56.6428 26.6896 57.0539 26.8575C57.4708 27.0311 57.9947 27.118 58.6258 27.118C59.5174 27.118 60.2555 26.9009 60.8403 26.4667C61.425 26.0382 61.7174 25.3319 61.7174 24.3477V21.8205H61.5611C61.399 22.1447 61.1616 22.4776 60.849 22.8192C60.5421 23.1608 60.134 23.4474 59.6245 23.679C59.1208 23.9106 58.4868 24.0264 57.7226 24.0264C56.6978 24.0264 55.7686 23.7861 54.9349 23.3055C54.107 22.8192 53.447 22.0955 52.9549 21.1345C52.4686 20.1676 52.2254 18.9576 52.2254 17.5044C52.2254 16.0396 52.4686 14.8036 52.9549 13.7962C53.447 12.783 54.1099 12.0159 54.9436 11.4948C55.7773 10.968 56.7065 10.7045 57.7313 10.7045C58.5129 10.7045 59.1555 10.8377 59.6592 11.104C60.1687 11.3645 60.574 11.6801 60.875 12.0506C61.1761 12.4154 61.4048 12.7598 61.5611 13.084H61.7348V10.8782H64.8351V24.4345C64.8351 25.5751 64.563 26.5188 64.0188 27.2656C63.4746 28.0125 62.7306 28.5712 61.7869 28.9417C60.8432 29.3122 59.7721 29.4975 58.5737 29.4975ZM58.5997 21.56C59.2655 21.56 59.8329 21.3979 60.3019 21.0737C60.7708 20.7494 61.1269 20.2834 61.37 19.6755C61.6132 19.0676 61.7348 18.3381 61.7348 17.487C61.7348 16.6475 61.6132 15.9123 61.37 15.2812C61.1327 14.6501 60.7795 14.1609 60.3105 13.8135C59.8474 13.4604 59.2771 13.2838 58.5997 13.2838C57.8992 13.2838 57.3144 13.4662 56.8455 13.8309C56.3765 14.1956 56.0234 14.6964 55.786 15.3333C55.5486 15.9644 55.4299 16.6823 55.4299 17.487C55.4299 18.3034 55.5486 19.0184 55.786 19.6321C56.0292 20.24 56.3852 20.7147 56.8542 21.0563C57.3289 21.3921 57.9108 21.56 58.5997 21.56ZM67.8125 24.2174V10.8782H70.9562V24.2174H67.8125ZM69.393 8.98503C68.8951 8.98503 68.4667 8.82002 68.1077 8.49002C67.7488 8.15422 67.5693 7.75185 67.5693 7.28289C67.5693 6.80814 67.7488 6.40577 68.1077 6.07576C68.4667 5.73997 68.8951 5.57207 69.393 5.57207C69.8967 5.57207 70.3251 5.73997 70.6783 6.07576C71.0372 6.40577 71.2167 6.80814 71.2167 7.28289C71.2167 7.75185 71.0372 8.15422 70.6783 8.49002C70.3251 8.82002 69.8967 8.98503 69.393 8.98503ZM80.6053 10.8782V13.3098H72.937V10.8782H80.6053ZM74.8302 7.68237H77.9739V20.2052C77.9739 20.6279 78.0376 20.9521 78.165 21.1779C78.2982 21.3979 78.4718 21.5484 78.6861 21.6295C78.9003 21.7105 79.1376 21.751 79.3982 21.751C79.595 21.751 79.7745 21.7366 79.9366 21.7076C80.1045 21.6787 80.2319 21.6526 80.3187 21.6295L80.8485 24.0871C80.6806 24.145 80.4403 24.2087 80.1277 24.2782C79.8208 24.3477 79.4445 24.3882 78.9987 24.3998C78.2113 24.4229 77.5021 24.3043 76.871 24.0437C76.24 23.7774 75.7392 23.3663 75.3686 22.8105C75.0039 22.2547 74.8244 21.56 74.8302 20.7263V7.68237ZM86.8284 24.4866C85.9832 24.4866 85.2218 24.3361 84.5444 24.035C83.8729 23.7282 83.3402 23.2766 82.9465 22.6803C82.5586 22.0839 82.3647 21.3487 82.3647 20.4744C82.3647 19.7218 82.5036 19.0994 82.7815 18.6073C83.0594 18.1152 83.4386 17.7215 83.9192 17.4262C84.3997 17.131 84.941 16.9081 85.5431 16.7575C86.1511 16.6012 86.7792 16.4883 87.4277 16.4188C88.2093 16.3378 88.8432 16.2654 89.3295 16.2017C89.8159 16.1323 90.169 16.028 90.389 15.8891C90.6148 15.7444 90.7277 15.5215 90.7277 15.2204V15.1683C90.7277 14.5141 90.5338 14.0075 90.1459 13.6485C89.758 13.2896 89.1993 13.1101 88.4698 13.1101C87.6998 13.1101 87.089 13.278 86.6374 13.6138C86.1916 13.9496 85.8905 14.3462 85.7342 14.8036L82.7989 14.3867C83.0305 13.5762 83.4126 12.8988 83.9452 12.3546C84.4779 11.8046 85.1292 11.3935 85.8992 11.1214C86.6692 10.8435 87.5203 10.7045 88.4524 10.7045C89.0951 10.7045 89.7348 10.7798 90.3717 10.9303C91.0085 11.0809 91.5904 11.3298 92.1172 11.6772C92.6441 12.0188 93.0667 12.4848 93.3851 13.0754C93.7094 13.6659 93.8715 14.4041 93.8715 15.2899V24.2174H90.8493V22.385H90.7451C90.554 22.7555 90.2848 23.1029 89.9374 23.4271C89.5959 23.7456 89.1645 24.0032 88.6435 24.2C88.1282 24.3911 87.5232 24.4866 86.8284 24.4866ZM87.6448 22.1766C88.2758 22.1766 88.8229 22.0521 89.2861 21.8032C89.7493 21.5484 90.1053 21.2126 90.3543 20.7958C90.609 20.3789 90.7364 19.9244 90.7364 19.4323V17.8604C90.638 17.9415 90.4701 18.0168 90.2327 18.0862C90.0011 18.1557 89.7406 18.2165 89.4511 18.2686C89.1616 18.3207 88.8751 18.367 88.5914 18.4076C88.3077 18.4481 88.0616 18.4828 87.8532 18.5118C87.3842 18.5755 86.9645 18.6797 86.594 18.8244C86.2234 18.9692 85.9311 19.1718 85.7168 19.4323C85.5026 19.6871 85.3955 20.0171 85.3955 20.4223C85.3955 21.0013 85.6068 21.4384 86.0295 21.7337C86.4521 22.0289 86.9905 22.1766 87.6448 22.1766ZM99.9318 6.43182V24.2174H96.788V6.43182H99.9318ZM118.546 11.3211C118.465 10.5627 118.123 9.97215 117.521 9.54951C116.925 9.12687 116.149 8.91555 115.194 8.91555C114.522 8.91555 113.946 9.01687 113.466 9.2195C112.985 9.42214 112.618 9.69714 112.363 10.0445C112.108 10.3919 111.978 10.7885 111.972 11.2343C111.972 11.6048 112.056 11.9261 112.224 12.1982C112.398 12.4704 112.632 12.7019 112.927 12.893C113.223 13.0783 113.55 13.2346 113.909 13.3619C114.268 13.4893 114.629 13.5964 114.994 13.6833L116.662 14.1001C117.333 14.2564 117.979 14.4678 118.598 14.7341C119.223 15.0004 119.782 15.3362 120.274 15.7415C120.772 16.1467 121.166 16.636 121.455 17.2091C121.745 17.7823 121.89 18.4539 121.89 19.2239C121.89 20.266 121.623 21.1837 121.091 21.9768C120.558 22.7642 119.788 23.3808 118.781 23.8266C117.779 24.2666 116.566 24.4866 115.142 24.4866C113.758 24.4866 112.557 24.2724 111.538 23.844C110.525 23.4156 109.731 22.7903 109.158 21.9682C108.591 21.146 108.284 20.1444 108.238 18.9634H111.408C111.454 19.5828 111.645 20.0981 111.981 20.5092C112.317 20.9202 112.754 21.2271 113.292 21.4297C113.836 21.6324 114.444 21.7337 115.116 21.7337C115.816 21.7337 116.43 21.6295 116.957 21.421C117.489 21.2068 117.906 20.9116 118.207 20.5352C118.508 20.1531 118.662 19.7073 118.668 19.1978C118.662 18.7347 118.526 18.3526 118.26 18.0515C117.993 17.7447 117.62 17.4899 117.139 17.2873C116.664 17.0789 116.109 16.8936 115.472 16.7315L113.448 16.2104C111.984 15.8341 110.826 15.2638 109.975 14.4996C109.129 13.7296 108.707 12.7077 108.707 11.434C108.707 10.3861 108.99 9.46846 109.558 8.68107C110.131 7.89369 110.91 7.28289 111.894 6.84867C112.878 6.40866 113.993 6.18866 115.237 6.18866C116.499 6.18866 117.605 6.40866 118.555 6.84867C119.51 7.28289 120.26 7.8879 120.804 8.6637C121.348 9.43372 121.629 10.3195 121.646 11.3211H118.546ZM131.039 10.8782V13.3098H123.371V10.8782H131.039ZM125.264 7.68237H128.408V20.2052C128.408 20.6279 128.472 20.9521 128.599 21.1779C128.732 21.3979 128.906 21.5484 129.12 21.6295C129.334 21.7105 129.572 21.751 129.832 21.751C130.029 21.751 130.209 21.7366 130.371 21.7076C130.539 21.6787 130.666 21.6526 130.753 21.6295L131.282 24.0871C131.115 24.145 130.874 24.2087 130.562 24.2782C130.255 24.3477 129.879 24.3882 129.433 24.3998C128.645 24.4229 127.936 24.3043 127.305 24.0437C126.674 23.7774 126.173 23.3663 125.803 22.8105C125.438 22.2547 125.258 21.56 125.264 20.7263V7.68237ZM139.099 24.4779C137.797 24.4779 136.668 24.1914 135.712 23.6182C134.757 23.045 134.016 22.2432 133.489 21.2126C132.968 20.1821 132.708 18.9778 132.708 17.5999C132.708 16.222 132.968 15.0149 133.489 13.9785C134.016 12.9422 134.757 12.1375 135.712 11.5643C136.668 10.9911 137.797 10.7045 139.099 10.7045C140.402 10.7045 141.531 10.9911 142.486 11.5643C143.441 12.1375 144.18 12.9422 144.701 13.9785C145.227 15.0149 145.491 16.222 145.491 17.5999C145.491 18.9778 145.227 20.1821 144.701 21.2126C144.18 22.2432 143.441 23.045 142.486 23.6182C141.531 24.1914 140.402 24.4779 139.099 24.4779ZM139.117 21.9595C139.823 21.9595 140.413 21.7655 140.888 21.3776C141.363 20.9839 141.716 20.4571 141.948 19.7971C142.185 19.1371 142.304 18.4018 142.304 17.5912C142.304 16.7749 142.185 16.0367 141.948 15.3767C141.716 14.7109 141.363 14.1812 140.888 13.7875C140.413 13.3938 139.823 13.1969 139.117 13.1969C138.393 13.1969 137.791 13.3938 137.31 13.7875C136.835 14.1812 136.479 14.7109 136.242 15.3767C136.01 16.0367 135.895 16.7749 135.895 17.5912C135.895 18.4018 136.01 19.1371 136.242 19.7971C136.479 20.4571 136.835 20.9839 137.31 21.3776C137.791 21.7655 138.393 21.9595 139.117 21.9595ZM147.915 24.2174V10.8782H150.963V13.1014H151.102C151.345 12.3314 151.762 11.738 152.352 11.3211C152.949 10.8985 153.629 10.6872 154.393 10.6872C154.567 10.6872 154.761 10.6958 154.975 10.7132C155.195 10.7248 155.377 10.7451 155.522 10.774V13.6659C155.389 13.6196 155.178 13.5791 154.888 13.5443C154.604 13.5038 154.329 13.4835 154.063 13.4835C153.49 13.4835 152.975 13.608 152.517 13.857C152.066 14.1001 151.71 14.4388 151.449 14.873C151.189 15.3072 151.058 15.808 151.058 16.3754V24.2174H147.915ZM162.722 24.4779C161.385 24.4779 160.23 24.2 159.257 23.6442C158.29 23.0826 157.546 22.2895 157.025 21.2647C156.504 20.2342 156.244 19.0213 156.244 17.626C156.244 16.2538 156.504 15.0496 157.025 14.0133C157.552 12.9712 158.287 12.1606 159.231 11.5817C160.175 10.9969 161.284 10.7045 162.557 10.7045C163.379 10.7045 164.155 10.8377 164.885 11.104C165.62 11.3645 166.268 11.7698 166.83 12.3198C167.397 12.8698 167.843 13.5704 168.167 14.4214C168.492 15.2667 168.654 16.2741 168.654 17.4436V18.4076H157.72V16.2886H165.64C165.634 15.6865 165.504 15.1509 165.249 14.682C164.995 14.2072 164.639 13.8338 164.181 13.5617C163.73 13.2896 163.203 13.1535 162.601 13.1535C161.958 13.1535 161.394 13.3098 160.907 13.6225C160.421 13.9293 160.042 14.3346 159.77 14.8383C159.503 15.3362 159.367 15.8833 159.361 16.4796V18.3294C159.361 19.1052 159.503 19.771 159.787 20.3268C160.071 20.8768 160.467 21.2995 160.977 21.5947C161.486 21.8842 162.083 22.0289 162.766 22.0289C163.223 22.0289 163.637 21.9653 164.008 21.8379C164.378 21.7047 164.699 21.5108 164.972 21.256C165.244 21.0013 165.449 20.6858 165.588 20.3094L168.523 20.6394C168.338 21.4153 167.985 22.0926 167.464 22.6716C166.949 23.2448 166.289 23.6906 165.484 24.009C164.679 24.3216 163.759 24.4779 162.722 24.4779Z" fill="white"/>
</svg>